<mxfile host="app.diagrams.net" modified="2023-10-27T11:30:00.000Z" agent="Mozilla/5.0" etag="etag_placeholder_user_core" version="22.0.0" type="device">
  <diagram id="diagram_id_placeholder_user_core" name="User Core ERD (Chen)">
    <mxGraphModel dx="1434" dy="794" grid="1" gridSize="10" guides="1" tooltips="1" connect="1" arrows="1" fold="1" page="1" pageScale="1" pageWidth="827" pageHeight="1169" math="0" shadow="0">
      <root>
        <mxCell id="0" />
        <mxCell id="1" parent="0" />

        <!-- Entities -->
        <mxCell id="user" value="User" style="whiteSpace=wrap;html=1;align=center;" vertex="1" parent="1">
          <mxGeometry x="200" y="200" width="100" height="40" as="geometry" />
        </mxCell>
        <mxCell id="userrole" value="UserRole" style="whiteSpace=wrap;html=1;align=center;" vertex="1" parent="1">
          <mxGeometry x="500" y="200" width="100" height="40" as="geometry" />
        </mxCell>
        <!-- Maybe add VerificationStatus if considered core -->

        <!-- Relationships (Diamonds) -->
        <mxCell id="rel_has_role" value="Has Role" style="rhombus;whiteSpace=wrap;html=1;align=center;" vertex="1" parent="1">
          <mxGeometry x="350" y="195" width="100" height="50" as="geometry" />
        </mxCell>

        <!-- Connections -->
        <!-- User(N) - Has Role - (1)UserRole -->
        <mxCell id="conn_user_rel" style="edgeStyle=none;html=1;entryX=0;entryY=0.5;entryDx=0;entryDy=0;exitX=1;exitY=0.5;exitDx=0;exitDy=0;" edge="1" parent="1" source="user" target="rel_has_role">
          <mxGeometry relative="1" as="geometry"/>
        </mxCell>
         <mxCell id="card_user_n" value="n" style="edgeLabel;html=1;align=center;verticalAlign=middle;resizable=0;points=[];" vertex="1" connectable="0" parent="conn_user_rel">
            <mxGeometry x="-0.2" relative="1" as="geometry"/>
        </mxCell>

        <mxCell id="conn_rel_role" style="edgeStyle=none;html=1;entryX=0;entryY=0.5;entryDx=0;entryDy=0;exitX=1;exitY=0.5;exitDx=0;exitDy=0;" edge="1" parent="1" source="rel_has_role" target="userrole">
          <mxGeometry relative="1" as="geometry"/>
        </mxCell>
         <mxCell id="card_role_1" value="1" style="edgeLabel;html=1;align=center;verticalAlign=middle;resizable=0;points=[];" vertex="1" connectable="0" parent="conn_rel_role">
            <mxGeometry x="-0.2" relative="1" as="geometry"/>
        </mxCell>

      </root>
    </mxGraphModel>
  </diagram>
</mxfile> 